<?xml version="1.0" encoding="UTF-8" ?>
<svg width="21px" height="20px" viewBox="0 0 21 20" version="1.1" xmlns="http://www.w3.org/2000/svg" xmlns:xlink="http://www.w3.org/1999/xlink">
    <!-- Generator: Sketch 61.2 (89653) - https://sketch.com -->
    <title>Invite</title>
    <desc>Created with Sketch.</desc>
    <g id="Symbols" stroke="none" stroke-width="1" fill="none" fill-rule="evenodd">
        <g id="Sidebar/Close_State" transform="translate(-32.000000, -526.000000)" stroke="#35589b">
            <g id="Sidebar/Open_State">
                <g id="Sidebar">
                    <g id="Group" transform="translate(32.000000, 92.000000)">
                        <g id="Invite" transform="translate(0.000000, 434.000000)">
                            <g id="icon/invitations">
                                <g id="Rectangle">
                                    <path d="M1.48550424,6.27488783 C1.18429883,6.45561108 1,6.78111791 1,7.13238076 L1,18 C1,18.5522847 1.44771525,19 2,19 L19,19 C19.5522847,19 20,18.5522847 20,18 L20,7.13238076 C20,6.78111791 19.8157012,6.45561108 19.5144958,6.27488783 L10.9142507,1.1147408 C10.7891167,1.03966037 10.6459301,1 10.5,1 C10.3540699,1 10.2108833,1.03966037 10.0857493,1.1147408 L1.48550424,6.27488783 Z" stroke-width="2"></path>
                                    <path d="M10.5,7 C10.6459301,7 10.7891167,7.03966037 10.9142507,7.1147408 L20,12.5661904 L20,13 C20,12.7604136 20.1942232,12.5661904 20.4338096,12.5661904 C20.512435,12.5661904 20.5895821,12.5875589 20.6570028,12.6280113 L11.9432422,7.39975495 C11.5072774,7.13817604 11.008418,7 10.5,7 Z M10.5,7 C9.99158198,7 9.49272264,7.13817604 9.05675778,7.39975495 L0.34299717,12.6280113 C0.548440846,12.5047451 0.814912855,12.5713631 0.93817906,12.7768068 C0.978631478,12.8442275 1,12.9213746 1,13 L1,12.5661904 L10.0857493,7.1147408 C10.2108833,7.03966037 10.3540699,7 10.5,7 Z" stroke-width="2" transform="translate(10.500000, 10.000000) scale(1, -1) translate(-10.500000, -10.000000) "></path>
                                </g>
                            </g>
                        </g>
                    </g>
                </g>
            </g>
        </g>
    </g>
</svg>