<?xml version="1.0" encoding="UTF-8" ?>
<svg width="20px" height="20px" viewBox="0 0 20 20" version="1.1" xmlns="http://www.w3.org/2000/svg" xmlns:xlink="http://www.w3.org/1999/xlink">
    <!-- Generator: Sketch 61.2 (89653) - https://sketch.com -->
    <title>toggle</title>
    <desc>Created with Sketch.</desc>
    <g id="Agency-Discussion-Forum" stroke="none" stroke-width="1" fill="none" fill-rule="evenodd">
        <g transform="translate(-33.000000, -970.000000)" id="Sidebar/Open_State">
            <g>
                <g id="Sidebar">
                    <g id="Toggle" transform="translate(31.000000, 968.000000)">
                        <g id="toggle">
                            <g id="Bounding_Boxes">
                                <polygon id="Shape" points="0 0 24 0 24 24 0 24"></polygon>
                            </g>
                            <path d="M6.49999991,13 L17.4999999,13 C19.1076952,13 20.5932668,13.8576951 21.3971144,15.25 C22.200962,16.6423048 22.200962,18.3576952 21.3971144,19.75 C20.5932668,21.1423049 19.1076952,22 17.4999999,22 L6.49999991,22 C4.89230482,22 3.4067332,21.1423049 2.6028856,19.75 C1.79903801,18.3576952 1.79903801,16.6423048 2.6028856,15.25 C3.4067332,13.8576951 4.89230482,13 6.49999991,13 L6.49999991,13 Z M17.5000001,2 C19.1076952,2 20.5932668,2.85769513 21.3971144,4.24999998 C22.200962,5.64230484 22.200962,7.35769516 21.3971144,8.75000002 C20.5932668,10.1423049 19.1076952,11 17.5000001,11 L6.50000007,11 C4.01471865,11 2.00000007,8.98528135 2.00000007,6.5 C2.00000007,4.01471865 4.01471865,2 6.50000007,2 L17.5000001,2 Z M17.5,19 C16.6715729,19 16,18.3284271 16,17.5 C16,16.6715729 16.6715729,16 17.5,16 C18.3284271,16 19,16.6715729 19,17.5 C19,18.3284271 18.3284271,19 17.5,19 Z M6.5,15 C5.11928813,15 4,16.1192881 4,17.5 C4,18.8807119 5.11928813,20 6.5,20 L17.5,20 C18.8807119,20 20,18.8807119 20,17.5 C20,16.1192881 18.8807119,15 17.5,15 L6.5,15 Z M17.5,4 L6.5,4 C5.11928813,4 4,5.11928813 4,6.5 C4,7.88071187 5.11928813,9 6.5,9 L17.5,9 C18.8807119,9 20,7.88071187 20,6.5 C20,5.11928813 18.8807119,4 17.5,4 Z M6.5,8 C5.67157288,8 5,7.32842712 5,6.5 C5,5.67157288 5.67157288,5 6.5,5 C7.32842712,5 8,5.67157288 8,6.5 C8,7.32842712 7.32842712,8 6.5,8 Z" id="Shape" fill="#fff" fill-rule="nonzero"></path>
                        </g>
                    </g>
                </g>
            </g>
        </g>
    </g>
</svg>