<?xml version="1.0" encoding="UTF-8"?>
<svg width="12px" height="9px" viewBox="0 0 12 9" version="1.1" xmlns="http://www.w3.org/2000/svg" xmlns:xlink="http://www.w3.org/1999/xlink">
    <!-- Generator: Sketch 61.2 (89653) - https://sketch.com -->
    <title>Element/Icon/Check</title>
    <desc>Created with Sketch.</desc>
    <g id="Symbols" stroke="none" stroke-width="1" fill="none" fill-rule="evenodd">
        <g id="steppers/complete" transform="translate(-6.000000, -8.000000)" fill="#FFFFFF">
            <g id="Element/Icon/Check" transform="translate(3.000000, 3.000000)">
                <g id="check" transform="translate(3.000000, 5.000000)">
                    <path d="M11.7251154,0.260447072 C11.5647896,0.0937594286 11.3465474,0 11.1188771,0 C10.8912068,0 10.6729646,0.0937594286 10.5126388,0.260447072 L4.15140578,6.82889252 L1.47883406,4.06415811 C1.25461963,3.84081461 0.931888581,3.75778455 0.632210576,3.84634454 C0.332532571,3.93490454 0.101435828,4.18160022 0.0259722572,4.49350372 C-0.0494913141,4.80540721 0.0421429973,5.13513296 0.266357433,5.35847645 L3.54516747,8.73955293 C3.70549325,8.90624057 3.92373551,9 4.15140578,9 C4.37907605,9 4.59731831,8.90624057 4.75764409,8.73955293 L11.7251154,1.55476541 C11.9003364,1.38807519 12,1.1534377 12,0.907606242 C12,0.661774783 11.9003364,0.427137298 11.7251154,0.260447072 Z" id="Path"></path>
                </g>
            </g>
        </g>
    </g>
</svg>