<?xml version="1.0" encoding="UTF-8"?>
<svg width="14px" height="14px" viewBox="0 0 14 14" version="1.1" xmlns="http://www.w3.org/2000/svg" xmlns:xlink="http://www.w3.org/1999/xlink">
    <!-- Generator: Sketch 61.2 (89653) - https://sketch.com -->
    <title>Icon/License</title>
    <desc>Created with Sketch.</desc>
    <g id="Icon/License" stroke="none" stroke-width="1" fill="none" fill-rule="evenodd">
        <g id="document" fill="#FFFFFF" fill-rule="nonzero">
            <path d="M13.5625,0 L3.5,0 C3.25837542,0 3.0625,0.195875422 3.0625,0.4375 L3.0625,11.3833125 C3.06484195,11.6128197 2.97512604,11.833696 2.81340801,11.996565 C2.65168999,12.1594341 2.43145555,12.2507142 2.2019375,12.25 L2.148125,12.25 C1.9208782,12.246002 1.70467463,12.1512606 1.54770285,11.9868922 C1.39073107,11.8225239 1.30603784,11.6021901 1.3125,11.375 L1.3125,7.875 L2.1875,7.875 L2.1875,7 L0.875,7 C0.633375422,7 0.4375,7.19587542 0.4375,7.4375 L0.4375,11.3666875 C0.429070449,11.8248375 0.603084111,12.2675524 0.921221473,12.597342 C1.23935883,12.9271315 1.67553061,13.1169509 2.1336875,13.125 L12.2749375,13.125 C13.2162117,13.1244283 13.983541,12.369943 14,11.4288125 L14,0.4375 C14,0.195875422 13.8041246,0 13.5625,0 Z M11.8125,10.5 L5.25,10.5 L5.25,9.625 L11.8125,9.625 L11.8125,10.5 Z M11.8125,7.875 L5.25,7.875 L5.25,7 L11.8125,7 L11.8125,7.875 Z M11.8125,5.25 L5.25,5.25 L5.25,2.1875 L11.8125,2.1875 L11.8125,5.25 Z" id="Shape"></path>
        </g>
    </g>
</svg>