<?xml version="1.0" encoding="UTF-8"?>
<svg width="50px" height="30px" viewBox="0 0 50 30" version="1.1" xmlns="http://www.w3.org/2000/svg" xmlns:xlink="http://www.w3.org/1999/xlink">
    <!-- Generator: Sketch 52.5 (67469) - http://www.bohemiancoding.com/sketch -->
    <title>Shape 2</title>
    <desc>Created with Sketch.</desc>
    <g id="Challenges" stroke="none" stroke-width="1" fill="none" fill-rule="evenodd">
        <g id="Challenge---Detail" transform="translate(-1103.000000, -844.000000)" fill="#FFFFFF" fill-rule="nonzero">
            <g id="Shape-2" transform="translate(1103.000000, 844.000000)">
                <path d="M21.5384615,25.3246753 L21.5384615,16.7532468 L16.6784615,16.7532468 L14.0534615,22.3174114 L11.4284615,16.7532468 L6.53846154,16.7532468 L6.53846154,25.3246753 L9.19346154,25.3246753 L9.13346154,18.9178957 L9.61346154,18.9178957 L12.9434615,25.3246753 L15.1784615,25.3246753 L18.5084615,18.9178957 L18.9434615,18.9178957 L18.8834615,25.3246753 L21.5384615,25.3246753 Z M24.8834827,25.3246753 L27.8401123,25.3246753 L27.8401123,25.2665638 L27.8401123,18.9324235 L31.9230769,18.9324235 L31.9230769,16.7532468 L20.7692308,16.7532468 L20.7692308,18.9324235 L24.8834827,18.9324235 L24.8834827,25.2665638 L24.8834827,25.3246753 Z M47.9117646,27.0909994 C49.2205881,25.748384 50,24.1372451 50,22.6752859 C50,19.602188 48.5588235,18.1849826 46.9411765,17.125808 C46.9705881,16.8572849 46.9852942,16.5738439 46.9852942,16.3053208 C46.9852942,11.621084 42.3382354,7.80208855 36.6176469,7.80208855 C36.1029412,7.80208855 35.5882354,7.84684235 35.0735292,7.90651414 C34.6911765,3.49080058 30.2205881,0 24.75,0 C19.3088235,0 14.8382354,3.46096469 14.4264708,7.84684235 C14.0735292,7.81700645 13.7205881,7.80208855 13.3676469,7.80208855 C7.66176462,7.80208855 3.01470577,11.621084 3.01470577,16.3053208 C3.01470577,16.5887619 3.02941192,16.8572849 3.05882346,17.125808 C1.44117654,18.1849826 0,19.602188 0,22.6752859 C0,25.987071 3.97058808,30 8.88235308,30 L27.9852942,30 L34.0441177,30 L35.0441177,30 L41.0882354,30 C42.5,30 43.8970588,29.6718051 45.1764708,29.0452512 C45.8676469,28.7170562 46.5147058,28.2844356 47.1323531,27.7921434 C46.7205881,27.3595227 46.25,26.8672301 45.7205881,26.315266 C44.0147058,24.5549478 41.8235292,22.3620089 40.1764708,20.9895574 C39.3088235,20.2585779 38.3235292,19.4977623 37.2352942,18.7369468 C36.3676469,18.1253108 35.4411765,17.5136748 34.4411765,16.9169568 C34.4411765,16.9169568 35.8823531,17.5435107 37.4705881,18.4684237 C38.3676469,18.9905519 39.2941177,19.602188 40.0294119,20.2585779 L40.2205881,20.0198906 L43.4264708,16.1412233 L39.3823531,16.1412233 L37.6911765,18.1849826 C37.6911765,18.1849826 29.1176469,11.5464942 20.4411765,15.5445052 C20.4411765,15.5445052 28.6029412,12.9040279 36.7205881,19.3485828 C37.6323531,20.0795624 38.5441177,20.9149677 39.4411765,21.8846345 C39.5735292,22.0188961 39.7058823,22.1680756 39.8382354,22.3172551 C39.8382354,22.3172551 39.6617646,22.1680756 39.3970588,21.9443063 C38.7352942,21.3923421 37.4705881,20.3779214 36.4558823,19.6916957 C35.8382354,19.288911 35.3529412,19.0353058 35.0588235,19.0054699 C35.0588235,19.0054699 33.7058823,18.8712083 35.5882354,20.7359522 C35.5882354,20.7359522 36.5294119,21.735455 37.0588235,22.6305321 C37.0588235,22.6305321 35.8529412,21.1387369 35.2941177,21.0790651 L31.2941177,25.9721532 L35.3235292,25.9721532 L37.3235292,23.5256091 L37.6764708,23.0929886 C37.2794119,22.3769269 36.6911765,21.3923421 36.0882354,20.6315266 C36.0882354,20.6315266 36.0882354,20.6315266 36.0735292,20.6166086 C36,20.5271009 35.9411765,20.4525111 35.8823531,20.3630035 C35.8382354,20.3182496 35.8088235,20.2734958 35.7647058,20.2287419 C35.7647058,20.2287419 35.8088235,20.2734958 35.9117646,20.3480855 C36.2941177,20.6613625 37.4411765,21.6011935 38.7352942,22.7498757 C39.4852942,23.4062656 41.9117646,25.7633018 43.6470588,27.4788662 C42.8235292,27.7772252 41.9558823,27.9562406 41.1029412,27.9562406 L36.7205881,27.9562406 L35.7205881,27.9562406 L29.6764708,27.9562406 L8.89705885,27.9562406 C4.97058808,27.9562406 2.02941192,24.748881 2.02941192,22.6752859 C2.02941192,20.4823471 2.85294115,19.6171059 4.69117654,18.5131775 L5.32352923,18.1402288 L5.16176462,17.4092491 C5.08823538,17.0661362 5.04411769,16.6931875 5.04411769,16.3053208 C5.04411769,12.7399304 8.79411769,9.84584786 13.3970588,9.84584786 C14.0294119,9.84584786 14.6617646,9.90551965 15.2794119,10.0099453 L16.5147058,10.2337145 L16.4558823,8.93585279 L16.4411765,8.50323222 C16.4411765,4.93784186 20.1911765,2.04375931 24.7941177,2.04375931 C29.3970588,2.04375931 33.1470588,4.93784186 33.1470588,8.50323222 L33.0441177,10.3381402 L34.3382354,10.099453 C35.1029412,9.93535555 35.8823531,9.84584786 36.6617646,9.84584786 C41.2647058,9.84584786 45.0147058,12.7399304 45.0147058,16.3053208 C45.0147058,16.6782695 44.9705881,17.0363003 44.8970588,17.4092491 L44.7352942,18.1402288 L45.3676469,18.5131775 C47.2058823,19.6171059 48.0294119,20.4823471 48.0294119,22.6752859 C48.0294119,23.6001989 47.4705881,24.7041273 46.5294119,25.6588761 L47.9117646,27.0909994 Z" id="Shape"></path>
            </g>
        </g>
    </g>
</svg>